<svg width="242" height="100" viewBox="0 0 242 100" fill="none" xmlns="http://www.w3.org/2000/svg">
<path d="M182.887 1.02366C182.533 1.31448 182.18 1.75072 182.097 1.99999C181.993 2.33236 181.931 2.37391 181.786 2.1454C181.682 1.97922 181.599 1.64685 181.599 1.3768C181.599 1.06521 181.474 0.919794 181.183 0.919794C180.664 0.919794 180.664 0.899021 181.266 5.28213C181.682 8.46041 181.744 8.70969 182.118 8.64737C182.347 8.60582 182.554 8.5435 182.554 8.5435C182.575 8.52273 182.45 7.52562 182.284 6.32079C182.139 5.11595 182.056 3.84879 182.118 3.47488C182.263 2.62318 183.094 1.62608 183.801 1.45989C184.154 1.35603 184.299 1.21062 184.258 0.96134C184.154 0.421241 183.572 0.442014 182.887 1.02366Z" fill="white"/>
<path d="M191.279 1.68836C191.217 2.35309 191.113 4.07726 191.03 5.5106C190.905 8.00336 190.926 8.128 191.32 8.23187C191.777 8.3565 191.777 8.33573 192.11 2.72701C192.234 0.587385 192.234 0.504292 191.819 0.504292C191.466 0.504292 191.383 0.670477 191.279 1.68836Z" fill="white"/>
<path d="M201.541 2.18694C200.087 2.49854 198.633 4.82512 198.633 6.84011C198.633 7.81644 199.464 9.24978 200.294 9.68601C201.271 10.1846 202.663 10.1638 203.535 9.64447C205.155 8.62659 206.028 5.24058 205.072 3.6826C204.345 2.49854 202.953 1.89612 201.541 2.18694ZM203.556 3.20482C204.844 3.97342 204.948 6.25846 203.805 8.12803C202.891 9.58215 201.208 9.76911 200.17 8.5435C199.692 7.96185 199.63 7.77489 199.713 6.54928C199.817 4.90821 200.336 3.70338 201.208 3.18405C202.039 2.6855 202.725 2.6855 203.556 3.20482Z" fill="white"/>
<path d="M169.696 3.84877C168.096 4.67969 167.681 6.96473 168.74 9.0628C169.883 11.3686 171.42 12.0334 173.289 11.0362C174.224 10.5585 174.951 9.49904 174.951 8.66812C174.951 7.85797 174.245 8.16956 174.017 9.08358C173.809 9.89373 172.791 10.6831 171.939 10.6831C171.15 10.6831 170.132 9.93527 169.633 9.00048C169.343 8.41884 169.363 8.37729 169.8 8.21111C170.07 8.10724 171.191 7.67101 172.313 7.25555C173.414 6.81931 174.328 6.36231 174.328 6.23767C174.307 5.71834 173.352 4.32655 172.687 3.89032C171.815 3.30867 170.755 3.2879 169.696 3.84877ZM172.646 4.99129C173.019 5.40675 173.269 5.84298 173.227 5.96762C173.186 6.11303 172.292 6.52849 171.233 6.92318C169.633 7.5256 169.28 7.58792 169.114 7.33864C168.657 6.61158 169.135 4.92897 169.903 4.47196C170.111 4.34732 170.672 4.24346 171.129 4.24346C171.877 4.24346 172.105 4.34732 172.646 4.99129Z" fill="white"/>
<path d="M211.657 9.87296C210.66 11.701 209.892 13.2797 209.954 13.3836C210.266 13.8822 210.681 13.4667 211.699 11.6387C212.281 10.5585 213.07 9.41595 213.423 9.10436C214.005 8.62658 214.233 8.56426 215.21 8.64735C216.124 8.73044 216.352 8.6889 216.518 8.3773C216.684 8.0657 216.622 7.96184 216.186 7.85797C215.625 7.71256 214.545 7.81643 213.922 8.08648C213.568 8.25266 213.568 8.23189 213.901 7.56715C214.192 7.00628 214.212 6.86087 213.963 6.71546C213.818 6.61159 213.652 6.5285 213.589 6.5285C213.527 6.54927 212.654 8.04493 211.657 9.87296Z" fill="white"/>
<path d="M157.98 7.38019C157.814 7.54637 157.917 7.85797 158.354 8.56425L158.956 9.51981L158.437 9.95605C158.084 10.2469 157.98 10.4546 158.104 10.6623C158.25 10.8908 158.374 10.8701 158.831 10.5792C159.143 10.3715 159.413 10.2469 159.455 10.2884C159.496 10.33 160.286 11.514 161.22 12.9266C162.155 14.3392 163.069 15.544 163.235 15.6063C163.942 15.8764 165.333 15.087 165.105 14.5261C165.001 14.2353 164.939 14.2353 164.502 14.5261C164.232 14.6923 163.859 14.7962 163.692 14.7338C163.505 14.6508 162.633 13.5082 161.76 12.1995L160.161 9.76909L160.805 9.24976C161.657 8.54348 161.407 8.02415 160.514 8.6058C160.161 8.8343 159.829 9.02126 159.745 9.02126C159.683 9.02126 159.351 8.6058 159.018 8.08647C158.395 7.06859 158.333 7.02705 157.98 7.38019Z" fill="white"/>
<path d="M151.291 16.0426C150.273 16.5619 149.712 17.3928 149.733 18.3899C149.754 19.2001 149.754 19.2001 149.297 18.9093C148.902 18.66 148.777 18.6392 148.59 18.8469C148.424 19.0547 148.798 19.5325 150.086 20.7788C153.887 24.4557 153.929 24.4764 154.261 24.1856C154.552 23.9571 154.324 23.6663 152.537 21.9214C150.875 20.3011 150.439 19.7817 150.335 19.1585C150.065 17.7044 151.27 16.458 152.62 16.7904C152.932 16.8735 154.116 17.8291 155.238 18.93C157.087 20.7373 157.336 20.9035 157.627 20.6127C157.917 20.3426 157.71 20.0933 155.799 18.2653C153.95 16.4996 152.766 15.6687 152.163 15.6687C152.08 15.6687 151.686 15.8349 151.291 16.0426Z" fill="white"/>
<path d="M227.403 20.8411C225.035 21.9213 223.81 24.144 224.682 25.8059C225.139 26.6991 225.991 27.3639 226.676 27.3846C227.341 27.4054 227.507 27.6547 226.988 27.8416C226.635 27.987 226.572 28.4648 226.884 28.6518C227.175 28.8387 236.024 22.2745 235.962 21.9213C235.879 21.3397 235.463 21.4851 233.947 22.6276C232.347 23.8117 231.953 23.9986 232.16 23.4377C232.368 22.8976 231.496 21.3397 230.748 20.8619C229.875 20.3426 228.525 20.3218 227.403 20.8411ZM230.748 21.9836C231.807 23.0431 231.745 23.9155 230.519 25.0996C229.481 26.1175 228.068 26.8861 227.258 26.8861C226.469 26.8861 225.471 25.9721 225.305 25.1204C224.994 23.4585 227.237 21.2774 229.252 21.2774C229.875 21.2774 230.187 21.4228 230.748 21.9836Z" fill="white"/>
<path d="M143.21 26.2629C143.002 26.5952 143.376 26.8653 146.326 28.631C148.84 30.1474 149.712 30.5837 149.837 30.3759C149.941 30.2305 150.024 30.0436 150.024 29.9812C150.024 29.8982 148.549 28.9634 146.741 27.8832C143.75 26.0967 143.418 25.9305 143.21 26.2629Z" fill="white"/>
<path d="M233.199 32.8895C231.537 33.6789 230.769 34.6552 230.789 35.9432C230.81 37.5219 231.849 38.7891 233.365 39.0384C234.051 39.163 234.113 39.1422 234.03 38.7683C233.947 38.519 233.614 38.2698 233.095 38.1243C231.142 37.5427 231.08 35.0915 232.97 33.949C233.344 33.7205 233.677 33.5335 233.739 33.5335C233.801 33.5335 234.258 34.5929 234.757 35.8809C235.256 37.148 235.733 38.2905 235.837 38.3944C236.045 38.6437 237.748 37.6258 238.288 36.9403C238.87 36.2132 238.87 34.7176 238.309 33.7828C237.333 32.1832 235.401 31.8509 233.199 32.8895ZM236.938 33.3465C237.624 33.6581 238.164 34.8214 237.998 35.6108C237.873 36.1717 236.647 37.4804 236.253 37.4804C236.003 37.4804 234.508 33.575 234.674 33.3258C234.84 33.0557 236.294 33.0557 236.938 33.3465Z" fill="white"/>
<path d="M82.6982 44.564C75.6562 45.1872 69.0503 49.8611 66.5783 56.0099C64.3764 61.4732 65.7266 69.5332 69.4035 72.8569C70.3798 73.7501 74.0359 75.9313 77.0479 77.4477C78.2943 78.0501 82.4905 79.8366 86.4166 81.4154C94.3727 84.6144 96.2215 85.6323 97.4055 87.398C98.278 88.7067 98.5688 89.7869 98.5896 91.698C98.5896 93.5676 98.0079 94.8971 96.6577 96.1227C94.4765 98.0961 91.6514 98.6985 87.3514 98.1169C83.1137 97.556 79.3953 95.6033 75.8639 92.1135C71.8339 88.1458 69.0503 83.098 67.0146 76.1598C66.246 73.5008 66.2044 73.4177 65.6435 73.4177H65.0619V86.6086V99.7995H65.6643C66.246 99.7995 66.246 99.7787 66.3914 98.3869C66.5991 96.3927 67.2846 93.3806 67.6793 92.799C68.074 92.1758 69.1542 91.698 70.1305 91.698C70.9822 91.698 72.6441 92.5497 76.4663 94.9802C78.0243 95.9565 80.0393 97.099 80.9533 97.5352C86.9982 100.381 93.6664 100.36 99.3997 97.4937C104.78 94.7932 108.208 90.9086 109.225 86.3801C109.682 84.2613 109.537 80.2105 108.914 78.0293C107.751 73.9994 104.905 70.3018 101.103 67.8298C99.2751 66.6457 94.2896 64.423 88.5354 62.2003C82.989 60.0814 80.9741 59.1466 79.2914 57.9626C77.7127 56.8201 76.9856 56.0099 76.3209 54.5558C75.9054 53.621 75.8223 53.2056 75.9054 51.8138C75.9677 50.4012 76.0508 50.0688 76.5909 49.2794C77.4219 48.1162 78.9798 46.9529 80.5378 46.3712C81.618 45.9558 82.1581 45.8934 84.5886 45.8934C87.7876 45.9142 89.2417 46.205 91.5475 47.3476C94.5596 48.8224 98.1741 52.3123 100.792 56.2592C101.955 58.0041 102.453 59.0636 103.575 62.3041C104.032 63.6544 104.136 63.7583 104.718 63.8206L105.362 63.8829V54.1196V44.3355H104.759C104.178 44.3355 104.136 44.3978 104.032 45.3118C103.637 48.5524 103.222 49.7572 102.287 50.2142C100.895 50.9205 100.792 50.8997 97.2393 48.9055C91.3606 45.6026 89.6987 44.8963 87.0398 44.6471C86.3335 44.5847 85.461 44.5016 85.1079 44.4601C84.7755 44.4186 83.6745 44.4601 82.6982 44.564Z" fill="white"/>
<path d="M238.413 45.2495C237.956 45.7273 237.478 46.9321 237.478 47.7215C237.478 48.9056 236.377 49.7365 235.339 49.3418C234.736 49.1133 234.258 47.9085 234.445 47.1399C234.591 46.579 235.484 45.5196 235.671 45.7065C235.733 45.7688 235.733 45.6442 235.671 45.3949C235.505 44.7717 235.11 44.8548 234.383 45.6857C232.742 47.5761 234.3 50.8167 236.564 50.235C237.561 49.9858 238.039 49.3002 238.33 47.763C238.621 46.1427 238.974 45.5819 239.742 45.5819C240.553 45.5819 241.01 46.1635 241.01 47.2022C241.01 47.9915 240.615 48.6978 240.158 48.6978C240.054 48.6978 239.971 48.9263 239.971 49.2172C239.971 49.6118 240.054 49.6949 240.345 49.5911C241.508 49.1756 242.069 47.8254 241.654 46.4128C241.197 44.834 239.452 44.2109 238.413 45.2495Z" fill="white"/>
<path d="M176.655 66.9365C172.604 79.0057 168.761 90.1816 168.096 91.7811C166.123 96.4758 164.876 97.369 160.265 97.3898C157.377 97.4106 157.024 97.2444 156.671 95.728C156.567 95.2917 156.463 89.9531 156.463 83.8873C156.463 77.3646 156.38 72.3998 156.256 71.7559C155.612 68.3491 152.994 65.7109 148.819 64.1945C146.928 63.5297 144.768 63.2389 142.421 63.3428C138.785 63.509 136.625 64.3814 134.672 66.4587C133.987 67.2066 133.239 68.1414 133.052 68.536C132.699 69.2216 132.678 68.8061 132.74 57.2147L132.824 45.1664H122.624H112.424V45.7688V46.3504L114.377 46.4543C116.621 46.5789 117.763 47.0152 118.241 47.9707C118.511 48.5108 118.553 51.6268 118.553 72.1713C118.553 90.14 118.49 95.8734 118.303 96.3096C117.95 97.099 116.995 97.5145 115.312 97.6599C113.982 97.7637 113.879 97.826 113.879 98.2623V98.7608H125.2H136.521V98.2623C136.521 97.826 136.417 97.7637 135.233 97.6599C133.468 97.4937 133.073 97.0367 132.886 94.9801C132.824 94.1492 132.782 88.2289 132.824 81.8308L132.886 70.1979L133.821 68.5568C135.026 66.4587 135.856 65.9186 137.955 65.9186C140.136 65.8979 141.278 66.6872 141.881 68.6399C142.192 69.6578 142.234 71.0704 142.213 82.6617C142.213 97.099 142.213 96.9951 140.884 97.4521C140.489 97.5975 139.762 97.7014 139.284 97.7014C138.474 97.7222 138.391 97.7637 138.391 98.2415V98.7608H158.125H177.86V98.2831C177.86 97.826 177.756 97.7845 175.429 97.5768C171.129 97.1613 169.966 96.3927 169.966 93.8999C169.987 92.3004 170.111 91.7603 171.669 86.3386L172.957 81.9347H179.937H186.917L188.662 87.1695C190.323 92.155 190.406 92.5289 190.427 94.2531C190.427 95.9149 190.386 96.1227 189.949 96.4758C189.347 96.9536 186.979 97.5145 184.777 97.6599C183.136 97.7845 183.053 97.8053 183.053 98.2623V98.7608H200.502H217.952V98.2623C217.952 97.8053 217.848 97.7637 216.456 97.6183C212.114 97.2236 211.138 96.3096 208.811 90.4516C207.773 87.8758 193.481 49.321 192.255 45.8311L191.944 44.9586H187.976H183.988L176.655 66.9365ZM180.041 62.9689C180.124 63.1766 181.516 67.0819 183.157 71.652C184.798 76.2221 186.19 80.1274 186.273 80.3144C186.418 80.6675 186.023 80.6883 179.937 80.6883C174.411 80.6883 173.476 80.6467 173.539 80.3975C173.726 79.5042 179.646 62.6157 179.75 62.6157C179.833 62.6157 179.958 62.7819 180.041 62.9689Z" fill="white"/>
<path d="M0.25 45.7896C0.25 46.392 0.270773 46.4127 1.35097 46.4543C3.28287 46.5166 3.44905 46.5374 4.61234 46.8905C5.98336 47.2852 6.58578 47.8876 7.06356 49.2379C7.35438 50.1311 7.4167 52.3123 7.52057 68.1206C7.62443 84.6144 7.66598 86.0685 8.01912 87.1279C8.7254 89.2675 9.82638 91.0956 11.4674 92.7366C15.6221 96.9743 21.2723 99.0724 29.8101 99.5917C35.7719 99.9449 40.5289 99.2386 43.915 97.4729C48.215 95.2502 50.5 91.2825 51.7672 83.9496C52.1411 81.6646 52.1826 80.5429 52.1826 68.993C52.2034 55.6152 52.3488 51.6891 52.9305 50.0688C53.3667 48.7809 54.6962 47.4306 55.8179 47.0983C56.8358 46.7867 59.8271 46.4127 61.1566 46.4127C62.1329 46.4127 62.1537 46.392 62.1537 45.7896V45.1664H51.4556H40.7575V45.7896V46.4127H42.0662C42.7724 46.4127 44.2889 46.5582 45.4106 46.7243C48.672 47.2229 49.7314 48.0538 50.4169 50.7335C50.7077 51.8345 50.7285 53.9741 50.6662 67.7467L50.6039 83.4926L50.0222 85.8815C49.0251 89.9738 47.7372 92.4043 45.3483 94.6685C42.9594 96.9536 40.1758 97.826 35.6888 97.6806C32.9883 97.6183 32.8845 97.5975 31.368 96.8289C29.4569 95.8941 27.6912 94.0869 26.798 92.2173C25.6554 89.7453 25.5931 88.6443 25.5931 69.1592C25.5931 57.9833 25.6762 51.0244 25.8216 50.1727C26.1124 48.3654 26.4864 47.7007 27.525 47.2437C28.5014 46.8074 31.2434 46.4127 33.2168 46.4127H34.5255V45.7896V45.1664H17.3878H0.25V45.7896Z" fill="white"/>
<path d="M234.196 57.0486C234.258 57.5056 234.362 57.5263 237.27 57.7756C241.737 58.1288 241.84 58.1288 241.84 57.6302C241.84 57.4017 241.757 57.2147 241.654 57.2147C241.259 57.2147 236.107 56.7993 235.131 56.6954C234.175 56.5708 234.134 56.5915 234.196 57.0486Z" fill="white"/>
<path d="M231.246 63.3843C230.332 63.6751 229.938 64.0283 229.46 65.0462C228.546 66.8742 229.024 68.4322 230.685 69.2423C231.163 69.4708 233.22 70.1563 235.235 70.7795C238.704 71.839 238.911 71.8805 239.015 71.4858C239.078 71.2158 238.995 71.0496 238.704 70.9873C238.33 70.8834 238.351 70.8003 239.015 70.2602C241.363 68.3283 239.514 64.9215 235.92 64.5476C234.528 64.4022 234.009 64.5268 233.157 65.2331C232.077 66.1471 231.828 67.7467 232.659 68.6815C232.95 69.0138 232.929 69.0554 232.576 69.0554C231.932 69.0346 230.498 68.3075 230.124 67.7882C229.356 66.6872 230.104 64.4645 231.288 64.3191C231.828 64.2568 232.181 63.779 231.953 63.4259C231.828 63.2181 231.724 63.2181 231.246 63.3843ZM237.312 65.8148C239.265 66.6457 239.846 68.4529 238.579 69.8032C238.122 70.3017 237.977 70.3433 236.876 70.2394C235.484 70.1148 234.009 69.5331 233.365 68.8269C232.493 67.9128 232.991 66.0433 234.238 65.5032C234.778 65.2747 236.398 65.4409 237.312 65.8148Z" fill="white"/>
<path d="M228.463 75.8066C228.4 75.9936 228.338 76.1805 228.338 76.2429C228.338 76.2844 229.252 76.9076 230.374 77.6346C231.496 78.3617 232.617 79.2134 232.867 79.5458C233.448 80.2936 233.469 81.4777 232.887 82.2255C232.139 83.181 231.267 82.9941 228.567 81.2907C226.468 79.9612 225.638 79.6704 225.638 80.252C225.638 80.5844 230.561 83.6173 231.309 83.7419C232.326 83.9081 233.199 83.368 233.739 82.2463C234.113 81.4569 234.154 81.2076 233.968 80.6467C233.677 79.795 233.677 79.795 234.175 80.0651C234.632 80.3144 235.193 80.2105 235.193 79.8781C235.193 79.7743 233.926 78.9018 232.389 77.9047C230.852 76.9284 229.377 75.9936 229.086 75.8066C228.65 75.5158 228.587 75.5158 228.463 75.8066Z" fill="white"/>
</svg>
