<svg width="28" height="28" viewBox="0 0 28 28" fill="none" xmlns="http://www.w3.org/2000/svg">
<circle cx="14" cy="14" r="14" transform="rotate(180 14 14)" fill="#181818"/>
<path d="M7.64645 13.6464C7.45118 13.8417 7.45118 14.1583 7.64645 14.3536L10.8284 17.5355C11.0237 17.7308 11.3403 17.7308 11.5355 17.5355C11.7308 17.3403 11.7308 17.0237 11.5355 16.8284L8.70711 14L11.5355 11.1716C11.7308 10.9763 11.7308 10.6597 11.5355 10.4645C11.3403 10.2692 11.0237 10.2692 10.8284 10.4645L7.64645 13.6464ZM13.5 14L13.5 14.5L13.5 14ZM19 13.5L13.5 13.5L13.5 14.5L19 14.5L19 13.5ZM13.5 13.5L8 13.5L8 14.5L13.5 14.5L13.5 13.5Z" fill="white"/>
<rect x="13.6581" y="20.3652" width="5.93068" height="1" rx="0.5" transform="rotate(-135 13.6581 20.3652)" fill="white"/>
<rect x="20" y="14.5" width="4.17631" height="1" rx="0.5" transform="rotate(180 20 14.5)" fill="white"/>
<rect x="14.3461" y="8.35388" width="5.90357" height="1" rx="0.5" transform="rotate(135 14.3461 8.35388)" fill="white"/>
</svg>
