<svg width="238" height="98" viewBox="0 0 238 98" fill="none" xmlns="http://www.w3.org/2000/svg">
<path d="M179.922 0.511603C179.574 0.798104 179.227 1.22785 179.145 1.47343C179.042 1.80086 178.981 1.84178 178.838 1.61668C178.735 1.45296 178.654 1.12553 178.654 0.859497C178.654 0.552532 178.531 0.409282 178.244 0.409282C177.733 0.409282 177.733 0.388818 178.326 4.70679C178.735 7.83783 178.797 8.0834 179.165 8.02201C179.39 7.98108 179.595 7.91969 179.595 7.91969C179.615 7.89922 179.493 6.91694 179.329 5.73001C179.186 4.54307 179.104 3.29475 179.165 2.92639C179.308 2.08736 180.127 1.10507 180.823 0.941354C181.171 0.839033 181.314 0.695783 181.273 0.450211C181.171 -0.0818615 180.598 -0.0613976 179.922 0.511603Z" fill="black"/>
<path d="M188.19 1.16647C188.128 1.82132 188.026 3.51986 187.944 4.9319C187.821 7.38762 187.842 7.51041 188.231 7.61273C188.681 7.73551 188.681 7.71505 189.008 2.18968C189.131 0.0818572 189.131 -4.76837e-07 188.722 -4.76837e-07C188.374 -4.76837e-07 188.292 0.163714 188.19 1.16647Z" fill="black"/>
<path d="M198.299 1.65761C196.867 1.96457 195.434 4.25658 195.434 6.24161C195.434 7.20344 196.253 8.61548 197.071 9.04523C198.033 9.53637 199.404 9.51591 200.264 9.0043C201.86 8.00155 202.72 4.66586 201.778 3.13104C201.062 1.96457 199.691 1.37111 198.299 1.65761ZM200.284 2.66036C201.553 3.41754 201.655 5.66861 200.53 7.5104C199.629 8.9429 197.972 9.12708 196.949 7.91969C196.478 7.34669 196.417 7.16251 196.498 5.95511C196.601 4.33843 197.112 3.1515 197.972 2.63989C198.79 2.14875 199.466 2.14875 200.284 2.66036Z" fill="black"/>
<path d="M166.927 3.29475C165.352 4.11333 164.942 6.3644 165.986 8.4313C167.112 10.7028 168.626 11.3577 170.468 10.3754C171.389 9.90473 172.105 8.86105 172.105 8.04248C172.105 7.24437 171.409 7.55133 171.184 8.45176C170.979 9.24987 169.977 10.0275 169.138 10.0275C168.36 10.0275 167.357 9.2908 166.866 8.36991C166.58 7.79691 166.6 7.75598 167.03 7.59226C167.296 7.48994 168.401 7.06019 169.506 6.6509C170.591 6.22115 171.491 5.77094 171.491 5.64815C171.471 5.13654 170.529 3.76543 169.874 3.33568C169.015 2.76268 167.971 2.74222 166.927 3.29475ZM169.833 4.42029C170.202 4.82958 170.447 5.25933 170.406 5.38212C170.365 5.52537 169.485 5.93465 168.442 6.32347C166.866 6.91694 166.518 6.97833 166.354 6.73276C165.904 6.01651 166.375 4.3589 167.132 3.90868C167.337 3.7859 167.889 3.68358 168.339 3.68358C169.076 3.68358 169.301 3.7859 169.833 4.42029Z" fill="black"/>
<path d="M208.265 9.22942C207.283 11.0303 206.526 12.5856 206.587 12.6879C206.894 13.179 207.304 12.7697 208.306 10.9689C208.879 9.90474 209.657 8.77921 210.005 8.47224C210.578 8.00156 210.803 7.94017 211.765 8.02203C212.665 8.10388 212.89 8.06296 213.054 7.75599C213.218 7.44903 213.156 7.3467 212.727 7.24438C212.174 7.10113 211.11 7.20345 210.496 7.46949C210.148 7.63321 210.148 7.61274 210.476 6.95788C210.762 6.40535 210.783 6.2621 210.537 6.11885C210.394 6.01652 210.23 5.93467 210.169 5.93467C210.107 5.95513 209.248 7.42856 208.265 9.22942Z" fill="black"/>
<path d="M155.386 6.77369C155.222 6.93741 155.324 7.24437 155.754 7.94016L156.347 8.88152L155.836 9.31127C155.488 9.59777 155.386 9.80241 155.508 10.0071C155.652 10.2322 155.774 10.2117 156.225 9.9252C156.532 9.72055 156.798 9.59777 156.839 9.6387C156.879 9.67962 157.657 10.8461 158.578 12.2377C159.499 13.6292 160.399 14.8162 160.563 14.8776C161.259 15.1436 162.63 14.366 162.405 13.8134C162.303 13.5269 162.241 13.5269 161.811 13.8134C161.545 13.9771 161.177 14.0795 161.013 14.0181C160.829 13.9362 159.97 12.8107 159.11 11.5214L157.534 9.12709L158.169 8.61548C159.008 7.91969 158.762 7.40808 157.882 7.98109C157.534 8.20619 157.207 8.39037 157.125 8.39037C157.064 8.39037 156.736 7.98109 156.409 7.46948C155.795 6.46673 155.733 6.4258 155.386 6.77369Z" fill="black"/>
<path d="M148.796 15.3073C147.793 15.8189 147.241 16.6375 147.261 17.6198C147.282 18.4179 147.282 18.4179 146.832 18.1314C146.443 17.8858 146.32 17.8654 146.136 18.07C145.972 18.2746 146.34 18.7453 147.609 19.9732C151.354 23.5954 151.395 23.6158 151.722 23.3293C152.009 23.1042 151.784 22.8177 150.024 21.0987C148.387 19.5025 147.957 18.9909 147.855 18.377C147.589 16.9445 148.776 15.7166 150.106 16.044C150.413 16.1259 151.579 17.0672 152.684 18.1519C154.506 19.9323 154.751 20.096 155.038 19.8095C155.324 19.5434 155.12 19.2979 153.237 17.497C151.416 15.7575 150.249 14.939 149.656 14.939C149.574 14.939 149.185 15.1027 148.796 15.3073Z" fill="black"/>
<path d="M223.777 20.0346C221.444 21.0987 220.237 23.2884 221.097 24.9256C221.547 25.8055 222.386 26.4604 223.061 26.4808C223.716 26.5013 223.88 26.7469 223.368 26.9311C223.02 27.0743 222.959 27.545 223.266 27.7292C223.552 27.9134 232.27 21.4466 232.209 21.0987C232.127 20.5257 231.717 20.669 230.224 21.7945C228.648 22.961 228.259 23.1452 228.464 22.5926C228.668 22.0606 227.809 20.5257 227.072 20.0551C226.213 19.5434 224.882 19.523 223.777 20.0346ZM227.072 21.1601C228.116 22.2038 228.054 23.0633 226.847 24.2298C225.824 25.2325 224.432 25.9897 223.634 25.9897C222.856 25.9897 221.874 25.0893 221.71 24.2502C221.403 22.6131 223.614 20.4643 225.599 20.4643C226.213 20.4643 226.52 20.6076 227.072 21.1601Z" fill="black"/>
<path d="M140.835 25.3757C140.631 25.7032 140.999 25.9692 143.905 27.7087C146.381 29.2026 147.241 29.6323 147.364 29.4277C147.466 29.2844 147.548 29.1002 147.548 29.0389C147.548 28.957 146.095 28.0361 144.314 26.972C141.367 25.212 141.04 25.0483 140.835 25.3757Z" fill="black"/>
<path d="M229.487 31.9039C227.85 32.6815 227.093 33.6434 227.113 34.9121C227.133 36.4674 228.157 37.7158 229.651 37.9613C230.326 38.0841 230.387 38.0636 230.305 37.6953C230.224 37.4497 229.896 37.2041 229.385 37.0609C227.461 36.4879 227.4 34.0731 229.262 32.9476C229.63 32.7225 229.958 32.5383 230.019 32.5383C230.08 32.5383 230.531 33.582 231.022 34.8507C231.513 36.0991 231.984 37.2246 232.086 37.3269C232.29 37.5725 233.969 36.5698 234.501 35.8944C235.074 35.1782 235.074 33.7047 234.521 32.7839C233.559 31.2081 231.656 30.8807 229.487 31.9039ZM233.17 32.3541C233.846 32.6611 234.378 33.8071 234.214 34.5847C234.091 35.1372 232.884 36.4265 232.495 36.4265C232.25 36.4265 230.776 32.5792 230.94 32.3336C231.104 32.0676 232.536 32.0676 233.17 32.3541Z" fill="black"/>
<path d="M81.2229 43.4048C74.2855 44.0187 67.7778 48.6232 65.3426 54.6807C63.1733 60.0628 64.5035 68.0029 68.1257 71.2772C69.0875 72.1572 72.6893 74.3059 75.6566 75.7998C76.8844 76.3933 81.0182 78.1532 84.886 79.7085C92.7238 82.86 94.5451 83.8628 95.7116 85.6022C96.5711 86.8915 96.8576 87.9556 96.8781 89.8384C96.8781 91.6801 96.3051 92.9899 94.9749 94.1973C92.8261 96.1414 90.043 96.7348 85.8069 96.1618C81.6322 95.6093 77.969 93.6857 74.4901 90.2476C70.52 86.339 67.7778 81.3661 65.7723 74.531C65.0151 71.9116 64.9742 71.8298 64.4217 71.8298H63.8487V84.8246V97.8194H64.4421C65.0151 97.8194 65.0151 97.799 65.1584 96.4279C65.363 94.4633 66.0383 91.496 66.4272 90.923C66.816 90.309 67.8801 89.8384 68.842 89.8384C69.681 89.8384 71.3181 90.6774 75.0836 93.0717C76.6184 94.0335 78.6034 95.1591 79.5039 95.5888C85.459 98.3924 92.028 98.372 97.6762 95.5479C102.976 92.8875 106.353 89.0607 107.356 84.5995C107.806 82.5121 107.663 78.5216 107.049 76.3728C105.903 72.4028 103.099 68.7601 99.3543 66.3249C97.5534 65.1584 92.642 62.9687 86.9733 60.779C81.5094 58.6917 79.5243 57.7708 77.8667 56.6043C76.3114 55.4788 75.5952 54.6807 74.9403 53.2482C74.531 52.3273 74.4492 51.918 74.531 50.5469C74.5924 49.1553 74.6743 48.8279 75.2064 48.0502C76.0249 46.9042 77.5598 45.7582 79.0946 45.1852C80.1587 44.7759 80.6908 44.7145 83.0851 44.7145C86.2366 44.735 87.6691 45.0215 89.9407 46.147C92.908 47.6 96.4688 51.038 99.0473 54.9262C100.193 56.6452 100.684 57.6889 101.79 60.8813C102.24 62.2115 102.342 62.3139 102.915 62.3752L103.549 62.4366V52.8184V43.1797H102.956C102.383 43.1797 102.342 43.2411 102.24 44.1415C101.851 47.334 101.442 48.5209 100.521 48.9711C99.1496 49.6669 99.0473 49.6464 95.5479 47.6819C89.7565 44.428 88.1194 43.7323 85.4999 43.4867C84.8041 43.4253 83.9446 43.3434 83.5967 43.3025C83.2693 43.2616 82.1847 43.3025 81.2229 43.4048Z" fill="black"/>
<path d="M234.623 44.0801C234.173 44.5508 233.702 45.7378 233.702 46.5154C233.702 47.6819 232.618 48.5004 231.595 48.1116C231.001 47.8865 230.531 46.6996 230.715 45.9424C230.858 45.3899 231.738 44.3462 231.922 44.5304C231.983 44.5918 231.983 44.469 231.922 44.2234C231.758 43.6095 231.37 43.6913 230.653 44.5099C229.037 46.3721 230.571 49.5646 232.802 48.9916C233.784 48.746 234.255 48.0707 234.542 46.5563C234.828 44.9601 235.176 44.4076 235.933 44.4076C236.731 44.4076 237.181 44.9806 237.181 46.0038C237.181 46.7814 236.793 47.4772 236.342 47.4772C236.24 47.4772 236.158 47.7023 236.158 47.9888C236.158 48.3777 236.24 48.4595 236.527 48.3572C237.673 47.9479 238.225 46.6177 237.816 45.2261C237.366 43.6709 235.647 43.0569 234.623 44.0801Z" fill="black"/>
<path d="M173.783 65.4449C169.792 77.3347 166.007 88.3445 165.352 89.9202C163.408 94.5452 162.18 95.4251 157.637 95.4456C154.792 95.4661 154.444 95.3023 154.096 93.8085C153.994 93.3787 153.892 88.1194 153.892 82.1438C153.892 75.718 153.81 70.827 153.687 70.1926C153.053 66.8365 150.474 64.2375 146.361 62.7436C144.499 62.0888 142.37 61.8023 140.058 61.9046C136.477 62.0683 134.348 62.9278 132.425 64.9742C131.749 65.7109 131.013 66.6318 130.828 67.0207C130.48 67.696 130.46 67.2867 130.521 55.8676L130.603 43.9983H120.555H110.507V44.5918V45.1648L112.431 45.2671C114.641 45.3899 115.767 45.8196 116.237 46.761C116.503 47.2931 116.544 50.3627 116.544 70.6019C116.544 88.3035 116.483 93.9517 116.299 94.3815C115.951 95.1591 115.009 95.5684 113.352 95.7116C112.042 95.814 111.94 95.8753 111.94 96.3051V96.7962H123.093H134.246V96.3051C134.246 95.8753 134.144 95.814 132.977 95.7116C131.238 95.5479 130.849 95.0977 130.665 93.0717C130.603 92.2532 130.562 86.4208 130.603 80.1178L130.665 68.6578L131.586 67.0411C132.773 64.9742 133.591 64.4422 135.658 64.4422C137.807 64.4217 138.932 65.1993 139.526 67.123C139.833 68.1257 139.874 69.5173 139.853 80.9364C139.853 95.1591 139.853 95.0568 138.543 95.507C138.155 95.6502 137.438 95.7526 136.968 95.7526C136.17 95.773 136.088 95.814 136.088 96.2846V96.7962H155.529H174.97V96.3256C174.97 95.8753 174.868 95.8344 172.576 95.6298C168.339 95.2205 167.193 94.4633 167.193 92.0076C167.214 90.4318 167.337 89.8998 168.872 84.5586L170.14 80.2201H177.016H183.892L185.611 85.3772C187.249 90.2886 187.33 90.6569 187.351 92.3555C187.351 93.9926 187.31 94.1973 186.88 94.5452C186.287 95.0158 183.954 95.5684 181.785 95.7116C180.168 95.8344 180.086 95.8549 180.086 96.3051V96.7962H197.276H214.466V96.3051C214.466 95.8549 214.364 95.814 212.993 95.6707C208.716 95.2819 207.754 94.3815 205.462 88.6105C204.439 86.0729 190.359 48.0912 189.152 44.6532L188.845 43.7937H184.936H181.007L173.783 65.4449ZM177.119 61.5362C177.201 61.7409 178.572 65.5882 180.188 70.0903C181.805 74.5925 183.176 78.4397 183.258 78.6239C183.401 78.9718 183.012 78.9923 177.016 78.9923C171.573 78.9923 170.652 78.9514 170.713 78.7058C170.898 77.8258 176.73 61.1883 176.832 61.1883C176.914 61.1883 177.037 61.352 177.119 61.5362Z" fill="black"/>
<path d="M0 44.6122C0 45.2057 0.0204643 45.2261 1.08461 45.2671C2.98779 45.3285 3.15151 45.3489 4.29751 45.6968C5.64815 46.0856 6.24162 46.6791 6.7123 48.0093C6.9988 48.8893 7.06019 51.038 7.16251 66.6114C7.26483 82.86 7.30576 84.2925 7.65366 85.3362C8.34944 87.444 9.43405 89.2449 11.0507 90.8616C15.1436 95.0363 20.7099 97.1032 29.1207 97.6148C34.994 97.9627 39.6803 97.2669 43.016 95.5274C47.2521 93.3378 49.5032 89.4291 50.7515 82.2052C51.1199 79.9541 51.1608 78.849 51.1608 67.4709C51.1813 54.2918 51.3245 50.4241 51.8975 48.8279C52.3273 47.5591 53.637 46.2289 54.7421 45.9015C55.7448 45.5945 58.6917 45.2261 60.0014 45.2261C60.9632 45.2261 60.9837 45.2057 60.9837 44.6122V43.9983H50.4446H39.9054V44.6122V45.2261H41.1947C41.8905 45.2261 43.3844 45.3694 44.4894 45.5331C47.7023 46.0243 48.746 46.8428 49.4213 49.4827C49.7078 50.5673 49.7283 52.6752 49.6669 66.243L49.6055 81.7549L49.0325 84.1083C48.0502 88.1398 46.7814 90.5341 44.428 92.7648C42.0746 95.0158 39.3324 95.8753 34.9121 95.7321C32.2518 95.6707 32.1494 95.6502 30.6556 94.893C28.7728 93.9721 27.0334 92.1918 26.1534 90.35C25.0279 87.9147 24.9665 86.8301 24.9665 67.6346C24.9665 56.6248 25.0483 49.7692 25.1916 48.9302C25.4781 47.1498 25.8464 46.4949 26.8697 46.0447C27.8315 45.615 30.5328 45.2261 32.4769 45.2261H33.7661V44.6122V43.9983H16.8831H0V44.6122Z" fill="black"/>
<path d="M230.469 55.7039C230.531 56.1541 230.633 56.1745 233.498 56.4201C237.898 56.768 238 56.768 238 56.2769C238 56.0518 237.918 55.8676 237.816 55.8676C237.427 55.8676 232.352 55.4583 231.39 55.356C230.449 55.2332 230.408 55.2537 230.469 55.7039Z" fill="black"/>
<path d="M227.563 61.9455C226.663 62.232 226.274 62.5799 225.803 63.5826C224.903 65.3835 225.374 66.9183 227.011 67.7164C227.481 67.9415 229.507 68.6169 231.492 69.2308C234.91 70.2745 235.115 70.3154 235.217 69.9266C235.278 69.6605 235.196 69.4968 234.91 69.4354C234.542 69.3331 234.562 69.2512 235.217 68.7192C237.529 66.816 235.708 63.4598 232.168 63.0915C230.797 62.9482 230.285 63.071 229.446 63.7668C228.382 64.6672 228.136 66.243 228.955 67.1639C229.241 67.4913 229.221 67.5322 228.873 67.5322C228.239 67.5118 226.826 66.7955 226.458 66.2839C225.701 65.1993 226.438 63.0096 227.604 62.8664C228.136 62.805 228.484 62.3343 228.259 61.9864C228.136 61.7818 228.034 61.7818 227.563 61.9455ZM233.539 64.3398C235.462 65.1584 236.035 66.9388 234.787 68.269C234.337 68.7601 234.194 68.801 233.109 68.6987C231.738 68.5759 230.285 68.0029 229.651 67.3071C228.791 66.4067 229.282 64.5649 230.51 64.0328C231.042 63.8077 232.638 63.9715 233.539 64.3398Z" fill="black"/>
<path d="M224.821 74.1831C224.76 74.3673 224.698 74.5515 224.698 74.6129C224.698 74.6538 225.599 75.2678 226.704 75.984C227.809 76.7003 228.914 77.5393 229.159 77.8667C229.732 78.6034 229.753 79.7699 229.18 80.5066C228.443 81.448 227.584 81.2638 224.923 79.5857C222.856 78.276 222.038 77.9895 222.038 78.5625C222.038 78.8899 226.888 81.8777 227.625 82.0005C228.627 82.1642 229.487 81.6322 230.019 80.5271C230.387 79.7494 230.428 79.5039 230.244 78.9513C229.958 78.1123 229.958 78.1123 230.449 78.3783C230.899 78.6239 231.451 78.5216 231.451 78.1942C231.451 78.0918 230.203 77.2323 228.689 76.25C227.174 75.2882 225.721 74.3673 225.435 74.1831C225.005 73.8966 224.944 73.8966 224.821 74.1831Z" fill="black"/>
</svg>
