<svg width="200" height="83" viewBox="0 0 200 83" fill="none" xmlns="http://www.w3.org/2000/svg">
<path d="M151.195 0.429913C150.903 0.67067 150.611 1.03181 150.542 1.23817C150.456 1.51332 150.404 1.54771 150.284 1.35855C150.198 1.22097 150.129 0.94582 150.129 0.722261C150.129 0.464307 150.026 0.343929 149.785 0.343929C149.355 0.343929 149.355 0.326732 149.854 3.95528C150.198 6.58641 150.249 6.79277 150.559 6.74118C150.748 6.70678 150.92 6.65519 150.92 6.65519C150.937 6.638 150.834 5.81255 150.696 4.81512C150.576 3.8177 150.507 2.76869 150.559 2.45915C150.679 1.75408 151.367 0.928624 151.952 0.791048C152.244 0.705064 152.365 0.584685 152.33 0.378322C152.244 -0.0687971 151.763 -0.0516002 151.195 0.429913Z" fill="#181818"/>
<path d="M158.143 0.980217C158.091 1.53052 158.005 2.95786 157.936 4.14445C157.833 6.20808 157.85 6.31126 158.177 6.39724C158.555 6.50042 158.555 6.48323 158.831 1.84006C158.934 0.0687813 158.934 -6.34172e-06 158.59 -6.34172e-06C158.298 -6.34172e-06 158.229 0.137569 158.143 0.980217Z" fill="#181818"/>
<path d="M166.638 1.39294C165.434 1.65089 164.23 3.57695 164.23 5.24505C164.23 6.0533 164.918 7.23989 165.606 7.60102C166.414 8.01375 167.567 7.99655 168.289 7.56663C169.63 6.72398 170.353 3.92089 169.562 2.63112C168.96 1.65089 167.807 1.15218 166.638 1.39294ZM168.306 2.23559C169.372 2.87187 169.458 4.76353 168.512 6.31126C167.756 7.51504 166.363 7.66981 165.503 6.65519C165.108 6.17368 165.056 6.01891 165.125 5.00429C165.211 3.64574 165.641 2.64832 166.363 2.21839C167.051 1.80567 167.618 1.80567 168.306 2.23559Z" fill="#181818"/>
<path d="M140.275 2.7687C138.951 3.45657 138.607 5.34823 139.484 7.08512C140.43 8.99398 141.703 9.54428 143.25 8.71883C144.024 8.3233 144.626 7.44625 144.626 6.75838C144.626 6.0877 144.041 6.34565 143.852 7.10232C143.68 7.773 142.837 8.42648 142.132 8.42648C141.479 8.42648 140.636 7.80739 140.224 7.03353C139.983 6.55201 140 6.51762 140.361 6.38005C140.585 6.29406 141.513 5.93293 142.442 5.58899C143.353 5.22785 144.11 4.84952 144.11 4.74634C144.093 4.31642 143.302 3.16422 142.752 2.80309C142.029 2.32158 141.152 2.30438 140.275 2.7687ZM142.717 3.71453C143.027 4.05846 143.233 4.4196 143.199 4.52278C143.164 4.64316 142.425 4.9871 141.548 5.31384C140.224 5.81255 139.931 5.86414 139.794 5.65778C139.415 5.05588 139.811 3.66293 140.447 3.2846C140.619 3.18142 141.083 3.09544 141.462 3.09544C142.081 3.09544 142.27 3.18142 142.717 3.71453Z" fill="#181818"/>
<path d="M175.013 7.75581C174.187 9.26914 173.551 10.5761 173.603 10.6621C173.861 11.0748 174.205 10.7309 175.047 9.21755C175.529 8.32331 176.182 7.37748 176.475 7.11952C176.956 6.72399 177.145 6.6724 177.954 6.74119C178.71 6.80998 178.899 6.77559 179.037 6.51763C179.175 6.25968 179.123 6.17369 178.762 6.08771C178.298 5.96733 177.403 6.05332 176.887 6.27688C176.595 6.41445 176.595 6.39725 176.87 5.84695C177.111 5.38264 177.128 5.26226 176.922 5.14188C176.801 5.05589 176.664 4.98711 176.612 4.98711C176.561 5.0043 175.838 6.24248 175.013 7.75581Z" fill="#181818"/>
<path d="M130.576 5.69217C130.439 5.82974 130.525 6.08769 130.886 6.67239L131.384 7.46345L130.954 7.82458C130.662 8.06534 130.576 8.23731 130.679 8.40928C130.8 8.59844 130.903 8.58125 131.281 8.34049C131.539 8.16852 131.763 8.06534 131.797 8.09973C131.832 8.13413 132.485 9.11435 133.259 10.2837C134.033 11.4531 134.789 12.4506 134.927 12.5021C135.512 12.7257 136.664 12.0722 136.475 11.6079C136.389 11.3671 136.337 11.3671 135.976 11.6079C135.752 11.7455 135.443 11.8315 135.305 11.7799C135.151 11.7111 134.428 10.7653 133.706 9.68185L132.382 7.66981L132.915 7.23989C133.62 6.65519 133.414 6.22527 132.674 6.70678C132.382 6.89595 132.107 7.05072 132.038 7.05072C131.986 7.05072 131.711 6.70678 131.436 6.27686C130.92 5.43421 130.868 5.39982 130.576 5.69217Z" fill="#181818"/>
<path d="M125.039 12.8633C124.196 13.2932 123.732 13.9811 123.749 14.8065C123.766 15.4772 123.766 15.4772 123.388 15.2365C123.061 15.0301 122.958 15.0129 122.803 15.1849C122.666 15.3568 122.975 15.7524 124.041 16.7842C127.188 19.828 127.223 19.8452 127.498 19.6045C127.739 19.4153 127.549 19.1745 126.071 17.73C124.695 16.3886 124.334 15.9587 124.248 15.4428C124.024 14.239 125.022 13.2072 126.139 13.4824C126.397 13.5512 127.378 14.3422 128.306 15.2537C129.837 16.7498 130.043 16.8874 130.284 16.6466C130.525 16.423 130.353 16.2167 128.77 14.7034C127.24 13.2416 126.26 12.5537 125.761 12.5537C125.692 12.5537 125.365 12.6913 125.039 12.8633Z" fill="#181818"/>
<path d="M188.048 16.8358C186.088 17.73 185.073 19.5701 185.795 20.9458C186.174 21.6853 186.879 22.2356 187.446 22.2528C187.997 22.27 188.134 22.4764 187.704 22.6311C187.412 22.7515 187.36 23.147 187.618 23.3018C187.859 23.4566 195.185 18.0224 195.133 17.73C195.065 17.2485 194.721 17.3689 193.465 18.3147C192.141 19.2949 191.814 19.4497 191.986 18.9854C192.158 18.5383 191.436 17.2485 190.817 16.853C190.095 16.423 188.977 16.4059 188.048 16.8358ZM190.817 17.7816C191.694 18.6586 191.642 19.3809 190.628 20.3611C189.768 21.2038 188.598 21.8401 187.928 21.8401C187.274 21.8401 186.449 21.0834 186.311 20.3783C186.053 19.0026 187.911 17.1969 189.579 17.1969C190.095 17.1969 190.353 17.3173 190.817 17.7816Z" fill="#181818"/>
<path d="M118.349 21.3241C118.177 21.5993 118.487 21.8229 120.929 23.2846C123.009 24.54 123.732 24.9011 123.835 24.7291C123.921 24.6088 123.99 24.454 123.99 24.4024C123.99 24.3336 122.769 23.5597 121.273 22.6655C118.796 21.1866 118.521 21.049 118.349 21.3241Z" fill="#181818"/>
<path d="M192.846 26.81C191.47 27.4635 190.834 28.2717 190.851 29.3379C190.868 30.6449 191.728 31.6939 192.984 31.9003C193.551 32.0034 193.603 31.9862 193.534 31.6767C193.465 31.4703 193.19 31.264 192.76 31.1436C191.144 30.6621 191.092 28.6328 192.657 27.687C192.966 27.4979 193.242 27.3431 193.293 27.3431C193.345 27.3431 193.723 28.2201 194.136 29.2863C194.549 30.3353 194.944 31.2812 195.03 31.3672C195.202 31.5735 196.612 30.7309 197.059 30.1634C197.541 29.5615 197.541 28.3233 197.077 27.5494C196.268 26.2253 194.669 25.9501 192.846 26.81ZM195.942 27.1883C196.509 27.4463 196.956 28.4093 196.819 29.0628C196.715 29.5271 195.701 30.6105 195.374 30.6105C195.168 30.6105 193.93 27.3775 194.067 27.1711C194.205 26.9476 195.408 26.9476 195.942 27.1883Z" fill="#181818"/>
<path d="M68.2545 36.4746C62.4248 36.9905 56.9561 40.8598 54.9097 45.9501C53.0868 50.4729 54.2046 57.1453 57.2485 59.8968C58.0568 60.6363 61.0834 62.442 63.577 63.6973C64.6088 64.196 68.0825 65.675 71.3328 66.9819C77.9192 69.6303 79.4497 70.4729 80.4299 71.9347C81.1522 73.0181 81.393 73.9123 81.4102 75.4944C81.4102 77.0421 80.9286 78.1427 79.8108 79.1574C78.0052 80.7911 75.6664 81.2898 72.1066 80.8083C68.5985 80.3439 65.5202 78.7274 62.5967 75.8383C59.2605 72.5537 56.9561 68.3749 55.2709 62.6311C54.6346 60.4299 54.6002 60.3611 54.1359 60.3611H53.6543V71.2812V82.2012H54.1531C54.6346 82.2012 54.6346 82.184 54.7549 81.0318C54.9269 79.3809 55.4944 76.8874 55.8212 76.4058C56.1479 75.8899 57.0421 75.4944 57.8504 75.4944C58.5555 75.4944 59.9312 76.1995 63.0954 78.2115C64.3852 79.0198 66.0533 79.9656 66.81 80.3267C71.8143 82.6827 77.3345 82.6655 82.0808 80.2923C86.5348 78.0567 89.3723 74.8409 90.215 71.092C90.5933 69.3379 90.4729 65.9845 89.957 64.1788C88.994 60.8426 86.638 57.7816 83.491 55.7352C81.9776 54.7549 77.8504 52.9149 73.0868 51.0748C68.4953 49.3207 66.8272 48.5469 65.4342 47.5666C64.1273 46.6208 63.5254 45.9501 62.9751 44.7463C62.6311 43.9725 62.5623 43.6285 62.6311 42.4764C62.6827 41.307 62.7515 41.0318 63.1986 40.3783C63.8865 39.4153 65.1763 38.4523 66.466 37.9708C67.3603 37.6268 67.8074 37.5752 69.8194 37.5752C72.4678 37.5924 73.6715 37.8332 75.5804 38.779C78.074 40 81.0662 42.8891 83.233 46.1565C84.196 47.601 84.6088 48.4781 85.5374 51.1608C85.9157 52.2786 86.0017 52.3646 86.4832 52.4162L87.0163 52.4678V44.3852V36.2855H86.5176C86.0361 36.2855 86.0017 36.3371 85.9157 37.0937C85.589 39.7764 85.2451 40.7739 84.4712 41.1522C83.319 41.7369 83.233 41.7197 80.2924 40.0688C75.4256 37.3345 74.0499 36.7498 71.8487 36.5434C71.264 36.4918 70.5417 36.423 70.2494 36.3886C69.9742 36.3543 69.0628 36.3886 68.2545 36.4746Z" fill="#181818"/>
<path d="M197.163 37.0421C196.784 37.4377 196.389 38.4351 196.389 39.0886C196.389 40.0688 195.477 40.7567 194.617 40.4299C194.119 40.2408 193.723 39.2433 193.878 38.6071C193.998 38.1427 194.738 37.2657 194.893 37.4205C194.944 37.4721 194.944 37.3689 194.893 37.1625C194.755 36.6466 194.428 36.7154 193.826 37.4033C192.468 38.9682 193.758 41.6509 195.632 41.1694C196.457 40.963 196.853 40.3955 197.094 39.123C197.334 37.7816 197.627 37.3173 198.263 37.3173C198.934 37.3173 199.312 37.7988 199.312 38.6586C199.312 39.3121 198.985 39.8968 198.607 39.8968C198.521 39.8968 198.452 40.086 198.452 40.3267C198.452 40.6535 198.521 40.7223 198.762 40.6363C199.725 40.2923 200.189 39.1745 199.845 38.0052C199.467 36.6982 198.022 36.1823 197.163 37.0421Z" fill="#181818"/>
<path d="M146.036 54.9957C142.683 64.9871 139.501 74.239 138.951 75.5632C137.317 79.4497 136.285 80.1892 132.468 80.2064C130.077 80.2236 129.785 80.086 129.493 78.8306C129.407 78.4695 129.321 74.0499 129.321 69.0284C129.321 63.6286 129.252 59.5185 129.149 58.9854C128.616 56.1651 126.449 53.9811 122.992 52.7257C121.427 52.1754 119.639 51.9347 117.696 52.0206C114.686 52.1582 112.898 52.8805 111.281 54.6002C110.714 55.2193 110.095 55.9931 109.94 56.3199C109.647 56.8874 109.63 56.5434 109.682 46.9476L109.751 36.9734H101.307H92.8633V37.4721V37.9536L94.4798 38.0396C96.3371 38.1427 97.2829 38.5039 97.6784 39.2949C97.902 39.7421 97.9364 42.3216 97.9364 59.3293C97.9364 74.2047 97.8848 78.951 97.73 79.3121C97.4377 79.9656 96.6466 80.3096 95.2537 80.4299C94.1531 80.5159 94.0671 80.5675 94.0671 80.9286V81.3414H103.439H112.812V80.9286C112.812 80.5675 112.726 80.5159 111.746 80.4299C110.284 80.2924 109.957 79.914 109.802 78.2115C109.751 77.5237 109.716 72.6225 109.751 67.3259L109.802 57.6956L110.576 56.3371C111.574 54.6002 112.261 54.1531 113.998 54.1531C115.804 54.1359 116.75 54.7893 117.249 56.4059C117.506 57.2485 117.541 58.4179 117.524 68.0138C117.524 79.9656 117.524 79.8796 116.423 80.258C116.096 80.3783 115.494 80.4643 115.099 80.4643C114.428 80.4815 114.359 80.5159 114.359 80.9114V81.3414H130.696H147.034V80.9458C147.034 80.5675 146.948 80.5331 145.022 80.3611C141.462 80.0172 140.499 79.3809 140.499 77.3173C140.516 75.9931 140.619 75.546 141.909 71.0576L142.975 67.4119H148.753H154.531L155.976 71.7455C157.352 75.8728 157.42 76.1823 157.438 77.6096C157.438 78.9854 157.403 79.1574 157.042 79.4497C156.543 79.8452 154.583 80.3096 152.76 80.4299C151.402 80.5331 151.333 80.5503 151.333 80.9286V81.3414H165.778H180.224V80.9286C180.224 80.5503 180.138 80.5159 178.985 80.3955C175.391 80.0688 174.583 79.3121 172.657 74.4626C171.797 72.3302 159.966 40.4127 158.951 37.5237L158.693 36.8014H155.408H152.107L146.036 54.9957ZM148.839 51.7111C148.908 51.8831 150.06 55.1161 151.419 58.8994C152.777 62.6827 153.93 65.9157 153.998 66.0705C154.119 66.3629 153.792 66.3801 148.753 66.3801C144.179 66.3801 143.405 66.3457 143.457 66.1393C143.611 65.3998 148.512 51.4188 148.598 51.4188C148.667 51.4188 148.77 51.5563 148.839 51.7111Z" fill="#181818"/>
<path d="M0 37.4892C0 37.9879 0.0171969 38.0051 0.911436 38.0395C2.51075 38.0911 2.64832 38.1083 3.61135 38.4007C4.74635 38.7274 5.24506 39.2261 5.64059 40.3439C5.88134 41.0834 5.93293 42.8891 6.01892 55.9759C6.1049 69.6303 6.1393 70.834 6.43164 71.7111C7.01634 73.4824 7.92778 74.9957 9.28633 76.3542C12.7257 79.8624 17.4033 81.5993 24.4712 82.0292C29.4067 82.3216 33.3448 81.7369 36.1479 80.2751C39.7077 78.4351 41.5993 75.1505 42.6483 69.08C42.9579 67.1883 42.9923 66.2597 42.9923 56.6982C43.0095 45.6234 43.1299 42.3732 43.6114 41.0318C43.9725 39.9656 45.0731 38.8478 46.0017 38.5726C46.8444 38.3147 49.3207 38.0051 50.4213 38.0051C51.2296 38.0051 51.2468 37.9879 51.2468 37.4892V36.9733H42.3904H33.534V37.4892V38.0051H34.6174C35.2021 38.0051 36.4575 38.1255 37.3861 38.2631C40.086 38.6758 40.963 39.3637 41.5305 41.5821C41.7713 42.4935 41.7885 44.2648 41.7369 55.6664L41.6853 68.7016L41.2038 70.6793C40.3783 74.0671 39.3121 76.0791 37.3345 77.9536C35.3568 79.8452 33.0525 80.5675 29.3379 80.4471C27.1023 80.3955 27.0163 80.3783 25.761 79.742C24.1789 78.9682 22.7171 77.472 21.9777 75.9243C21.0318 73.8779 20.9802 72.9665 20.9802 56.8358C20.9802 47.5838 21.049 41.8229 21.1694 41.1178C21.4102 39.6217 21.7197 39.0714 22.5795 38.693C23.3878 38.3319 25.6578 38.0051 27.2915 38.0051H28.3749V37.4892V36.9733H14.1875H0V37.4892Z" fill="#181818"/>
<path d="M193.672 46.81C193.723 47.1883 193.809 47.2055 196.217 47.4118C199.914 47.7042 200 47.7042 200 47.2915C200 47.1023 199.931 46.9475 199.845 46.9475C199.518 46.9475 195.254 46.6036 194.445 46.5176C193.654 46.4144 193.62 46.4316 193.672 46.81Z" fill="#181818"/>
<path d="M191.23 52.055C190.473 52.2958 190.146 52.5881 189.751 53.4308C188.994 54.9441 189.39 56.2339 190.765 56.9045C191.161 57.0937 192.863 57.6612 194.531 58.1771C197.403 59.0542 197.575 59.0886 197.661 58.7618C197.713 58.5383 197.644 58.4007 197.403 58.3491C197.094 58.2631 197.111 58.1943 197.661 57.7472C199.604 56.1479 198.074 53.3276 195.099 53.018C193.947 52.8977 193.517 53.0008 192.812 53.5855C191.917 54.3422 191.711 55.6664 192.399 56.4402C192.64 56.7154 192.623 56.7498 192.33 56.7498C191.797 56.7326 190.61 56.1307 190.301 55.7008C189.665 54.7893 190.284 52.9493 191.264 52.8289C191.711 52.7773 192.003 52.3818 191.814 52.0894C191.711 51.9174 191.625 51.9174 191.23 52.055ZM196.251 54.0671C197.868 54.7549 198.349 56.2511 197.3 57.3689C196.922 57.7816 196.801 57.816 195.89 57.73C194.738 57.6268 193.517 57.1453 192.984 56.5606C192.261 55.8039 192.674 54.2562 193.706 53.8091C194.153 53.6199 195.494 53.7575 196.251 54.0671Z" fill="#181818"/>
<path d="M188.925 62.3388C188.874 62.4935 188.822 62.6483 188.822 62.6999C188.822 62.7343 189.579 63.2502 190.507 63.8521C191.436 64.454 192.365 65.1591 192.571 65.4342C193.052 66.0533 193.07 67.0335 192.588 67.6526C191.969 68.4437 191.247 68.2889 189.011 66.8788C187.274 65.7781 186.586 65.5374 186.586 66.0189C186.586 66.2941 190.662 68.8048 191.281 68.908C192.124 69.0456 192.846 68.5984 193.293 67.6698C193.603 67.0163 193.637 66.81 193.482 66.3456C193.242 65.6406 193.242 65.6406 193.654 65.8641C194.033 66.0705 194.497 65.9845 194.497 65.7094C194.497 65.6234 193.448 64.9011 192.175 64.0757C190.903 63.2674 189.682 62.4935 189.441 62.3388C189.08 62.098 189.028 62.098 188.925 62.3388Z" fill="#181818"/>
</svg>
